<svg width="101" height="99" viewBox="0 0 101 99" fill="none" xmlns="http://www.w3.org/2000/svg">
<path d="M98.1153 45.546L54.4531 1.88668C53.8552 1.28854 53.1452 0.81406 52.3639 0.490339C51.5825 0.166619 50.745 0 49.8993 0C49.0535 0 48.216 0.166619 47.4347 0.490339C46.6533 0.81406 45.9434 1.28854 45.3454 1.88668L36.279 10.954L47.7803 22.4543C49.1322 21.9946 50.5858 21.9226 51.9765 22.2466C53.3672 22.5706 54.6394 23.2776 55.6489 24.2875C56.6639 25.3038 57.3725 26.5851 57.6939 27.985C58.0152 29.3849 57.9363 30.8469 57.4662 32.2041L68.5488 43.2886C71.2305 42.365 74.3252 42.9629 76.4663 45.1077C77.1781 45.8191 77.7428 46.6637 78.1281 47.5935C78.5133 48.5232 78.7116 49.5197 78.7116 50.526C78.7116 51.5324 78.5133 52.5289 78.1281 53.4586C77.7428 54.3883 77.1781 55.233 76.4663 55.9444C75.2139 57.1979 73.5658 57.9787 71.8025 58.1539C70.0392 58.329 68.2698 57.8877 66.7953 56.905C65.3208 55.9223 64.2324 54.4589 63.7154 52.7641C63.1984 51.0692 63.2848 49.2475 63.9597 47.6092L53.6233 37.2728L53.6224 64.4748C54.3717 64.8453 55.0561 65.3348 55.6489 65.9241C56.3607 66.6357 56.9254 67.4806 57.3106 68.4104C57.6958 69.3403 57.8941 70.3369 57.8941 71.3434C57.8941 72.3499 57.6958 73.3465 57.3106 74.2763C56.9254 75.2062 56.3607 76.0511 55.6489 76.7627C52.6547 79.757 47.8018 79.757 44.8123 76.7627C43.9191 75.8702 43.2603 74.7708 42.8945 73.5623C42.5287 72.3539 42.4671 71.0737 42.7153 69.8357C42.9635 68.5977 43.5138 67.4402 44.3171 66.4661C45.1205 65.4921 46.1522 64.7316 47.3203 64.2524V36.7969C46.3806 36.4131 45.5277 35.8443 44.8123 35.1242C42.5445 32.8593 41.9991 29.5318 43.1612 26.7468L31.8242 15.4079L1.88692 45.3433C1.28869 45.9415 0.814155 46.6516 0.490396 47.4332C0.166637 48.2148 0 49.0525 0 49.8985C0 50.7445 0.166637 51.5823 0.490396 52.3638C0.814155 53.1454 1.28869 53.8556 1.88692 54.4538L45.5491 98.1141C46.757 99.3216 48.395 100 50.1029 100C51.8109 100 53.4489 99.3216 54.6568 98.1141L98.1153 54.6575C99.3231 53.449 100.002 51.8103 100.002 50.1018C100.002 48.3932 99.3231 46.7545 98.1153 45.546Z" fill="#71C2F2"/>
</svg>
