<svg width="100" height="101" viewBox="0 0 100 101" fill="none" xmlns="http://www.w3.org/2000/svg">
<path d="M89.2857 0.142822H10.7143C4.79911 0.142822 0 4.94193 0 10.8571V89.4285C0 95.3437 4.79911 100.143 10.7143 100.143H89.2857C95.2009 100.143 100 95.3437 100 89.4285V10.8571C100 4.94193 95.2009 0.142822 89.2857 0.142822ZM54.4196 78.1339C54.4196 87.866 48.7054 92.308 40.3795 92.308C32.8571 92.308 28.5045 88.4241 26.2723 83.7142L33.9286 79.0937C35.4018 81.7053 36.7411 83.9151 39.9777 83.9151C43.058 83.9151 45.0223 82.7098 45.0223 78V46.058H54.4196V78.1339ZM76.6518 92.308C67.9241 92.308 62.2768 88.1562 59.5313 82.7098L67.1875 78.2901C69.1964 81.5714 71.8304 84.0044 76.4509 84.0044C80.3348 84.0044 82.8348 82.0625 82.8348 79.3616C82.8348 76.1473 80.2902 75.0089 75.9821 73.1116L73.6384 72.1071C66.8527 69.2276 62.3661 65.5892 62.3661 57.933C62.3661 50.8794 67.7455 45.5223 76.1161 45.5223C82.0982 45.5223 86.3839 47.5982 89.4643 53.0446L82.1429 57.7321C80.5357 54.8526 78.7946 53.7143 76.0937 53.7143C73.3482 53.7143 71.6071 55.4553 71.6071 57.7321C71.6071 60.5446 73.3482 61.683 77.3884 63.4464L79.7321 64.4509C87.7232 67.866 92.2098 71.3705 92.2098 79.2276C92.2098 87.6651 85.558 92.308 76.6518 92.308Z" fill="#71C2F2"/>
</svg>
