<svg width="101" height="92" viewBox="0 0 101 92" fill="none" xmlns="http://www.w3.org/2000/svg">
<path d="M12.4933 30.6188L12.2485 59.0468L30.2819 69.1361L36.8423 69.1361L36.7637 44.893L60.8074 31.0113L36.537 16.7371L12.4933 30.6188Z" fill="url(#paint0_linear_29_24)"/>
<path d="M64.0872 0L39.8623 14.426L64.0872 28.3077V56.071L88.5842 42.1894V14.426L64.0872 0Z" fill="url(#paint1_linear_29_24)"/>
<path d="M64.1782 60.4468L40.1345 46.5651L39.9506 69.4083L88.6233 69.4083L88.3125 46.4083L64.1782 60.4468Z" fill="url(#paint2_linear_29_24)"/>
<path d="M45.7928 88.5799V73.1799H53.9328C54.3141 73.1799 54.6661 73.3265 54.9888 73.6199L57.1008 75.3799C57.4528 75.6732 57.6288 75.9665 57.6288 76.2599V85.4999C57.6288 85.7932 57.4528 86.0865 57.1008 86.3799L54.9888 88.1399C54.6661 88.4332 54.3141 88.5799 53.9328 88.5799H45.7928ZM55.7808 84.8399V76.9199C55.7808 76.6265 55.6048 76.3332 55.2528 76.0399L54.1968 75.1599C53.8741 74.8665 53.5221 74.7199 53.1408 74.7199H47.6408V87.0399H53.1408C53.5221 87.0399 53.8741 86.8932 54.1968 86.5999L55.2528 85.7199C55.6048 85.4265 55.7808 85.1332 55.7808 84.8399ZM61.4763 73.1799H63.3243V88.5799H61.4763V73.1799Z" fill="url(#paint3_linear_29_24)"/>
<line x1="36.596" y1="91.5" x2="74.1582" y2="91.5" stroke="url(#paint4_linear_29_24)"/>
<defs>
<linearGradient id="paint0_linear_29_24" x1="11.3829" y1="57.5475" x2="59.9418" y2="29.512" gradientUnits="userSpaceOnUse">
<stop stop-color="#0689E2"/>
<stop offset="1" stop-color="#042484"/>
</linearGradient>
<linearGradient id="paint1_linear_29_24" x1="64.2233" y1="0" x2="64.2233" y2="56.071" gradientUnits="userSpaceOnUse">
<stop stop-color="#0689E2"/>
<stop offset="1" stop-color="#042484"/>
</linearGradient>
<linearGradient id="paint2_linear_29_24" x1="89.781" y1="72.717" x2="41.222" y2="44.6815" gradientUnits="userSpaceOnUse">
<stop stop-color="#0689E2"/>
<stop offset="1" stop-color="#042484"/>
</linearGradient>
<linearGradient id="paint3_linear_29_24" x1="54.5605" y1="74.5799" x2="54.5605" y2="88.1893" gradientUnits="userSpaceOnUse">
<stop stop-color="#0689E2"/>
<stop offset="1" stop-color="#042484"/>
</linearGradient>
<linearGradient id="paint4_linear_29_24" x1="55.3771" y1="92" x2="55.3771" y2="93" gradientUnits="userSpaceOnUse">
<stop stop-color="#0689E2"/>
<stop offset="1" stop-color="#042484"/>
</linearGradient>
</defs>
</svg>
