<svg width="100" height="100" viewBox="0 0 100 100" fill="none" xmlns="http://www.w3.org/2000/svg">
<g clip-path="url(#clip0_78_4)">
<path d="M31.2584 0H42V4.49167H35.75V8.98333H42V13.475H31.2584V0ZM44.1459 0H54.8917V3.90833H48.6417V4.6875H54.8917V13.6708H44.1459V9.57083H50.3959V8.7875H44.1459V0ZM57.0417 0H67.7792V3.90833H61.5292V4.6875H67.7792V13.6708H57.0417V9.57083H63.2917V8.7875H57.0417V0Z" fill="#71C2F2"/>
<path fill-rule="evenodd" clip-rule="evenodd" d="M49.9625 99.9999L21.0292 91.9666L12.5 19.6541H87.5L78.975 91.9582L49.9625 99.9999ZM29.3625 52.3874L30.1583 61.2541H60.8958L59.8667 72.7541L49.975 75.4291H49.9667L40.0917 72.7624L39.4583 65.6916H30.5542L31.7958 79.6166L49.9625 84.6582L68.1583 79.6166L70.375 54.7666L70.5917 52.3874L72.1917 34.4332H27.7667L28.575 43.3041H62.475L61.6667 52.3874H29.3625Z" fill="#71C2F2"/>
</g>
<defs>
<clipPath id="clip0_78_4">
<rect width="100" height="100" fill="white"/>
</clipPath>
</defs>
</svg>
