<svg width="50" height="50" viewBox="0 0 50 50" fill="none" xmlns="http://www.w3.org/2000/svg">
<path d="M36.52 30.4301C36.52 32.5301 37.1175 33.3676 38.68 33.3676C42.1625 33.3676 44.38 28.9301 44.38 21.5501C44.38 10.2701 36.16 4.87009 25.8975 4.87009C15.34 4.87009 5.7375 11.9501 5.7375 25.3301C5.7375 38.1101 14.1375 45.0701 27.0375 45.0701C31.4175 45.0701 34.3575 44.5901 38.855 43.0901L39.82 47.1076C35.38 48.5501 30.635 48.9676 26.9775 48.9676C10.0575 48.9676 0.994995 39.6676 0.994995 25.3276C0.994995 10.8676 11.4975 1.02759 25.9575 1.02759C41.0175 1.02759 48.995 10.0276 48.995 21.0676C48.995 30.4276 46.0575 37.5676 36.8175 37.5676C32.615 37.5676 29.8575 35.8876 29.4975 32.1651C28.4175 36.3051 25.5375 37.5676 21.635 37.5676C16.415 37.5676 12.035 33.5451 12.035 25.4476C12.035 17.2876 15.8775 12.2476 22.7775 12.2476C26.4375 12.2476 28.7175 13.6876 29.7325 15.9676L31.475 12.7876H36.515V30.4301H36.52ZM29.1425 22.5101C29.1425 19.2126 26.68 17.8301 24.64 17.8301C22.42 17.8301 19.9625 19.6276 19.9625 24.9101C19.9625 29.1101 21.8225 31.4501 24.64 31.4501C26.62 31.4501 29.1425 30.1901 29.1425 26.7101V22.5101Z" fill="url(#paint0_linear_45_227)"/>
<defs>
<linearGradient id="paint0_linear_45_227" x1="24.995" y1="1.02759" x2="24.995" y2="48.9676" gradientUnits="userSpaceOnUse">
<stop stop-color="#0689E2"/>
<stop offset="1" stop-color="#042484"/>
</linearGradient>
</defs>
</svg>
