<svg width="100" height="100" viewBox="0 0 100 100" fill="none" xmlns="http://www.w3.org/2000/svg">
<path fill-rule="evenodd" clip-rule="evenodd" d="M36.1125 39.2375C34.6992 39.2375 33.2997 39.5159 31.9939 40.0568C30.6881 40.5977 29.5017 41.3904 28.5023 42.3898C27.5029 43.3892 26.7101 44.5756 26.1693 45.8814C25.6284 47.1872 25.35 48.5867 25.35 50C25.35 51.4134 25.6284 52.8129 26.1693 54.1187C26.7101 55.4244 27.5029 56.6109 28.5023 57.6103C29.5017 58.6097 30.6881 59.4024 31.9939 59.9433C33.2997 60.4842 34.6992 60.7625 36.1125 60.7625H46.875V50.2167C46.8733 50.0723 46.8733 49.9278 46.875 49.7834V39.2375H36.1125ZM46.875 32.9875H36.1125C33.2576 32.9875 30.5196 31.8534 28.5008 29.8347C26.4821 27.8159 25.3479 25.0779 25.3479 22.223C25.3479 19.368 26.4821 16.63 28.5008 14.6112C30.5196 12.5925 33.2576 11.4584 36.1125 11.4584H46.875V32.9875ZM53.125 11.4584V32.9875H63.8875C66.7058 32.9321 69.3899 31.7736 71.3634 29.7609C73.3369 27.7482 74.4424 25.0418 74.4424 22.223C74.4424 19.4041 73.3369 16.6977 71.3634 14.685C69.3899 12.6723 66.7058 11.5138 63.8875 11.4584H53.125ZM63.8875 39.2334C61.0625 39.233 58.3506 40.3434 56.337 42.325C54.3235 44.3066 53.1699 47.0004 53.125 49.825V50.1709C53.1595 52.2917 53.8199 54.3551 55.0233 56.1018C56.2266 57.8485 57.9193 59.2007 59.8887 59.9885C61.8581 60.7763 64.0163 60.9646 66.0924 60.5298C68.1685 60.095 70.0697 59.0564 71.5575 57.5445C73.0452 56.0326 74.053 54.1148 74.4542 52.032C74.8555 49.9492 74.6324 47.7943 73.8129 45.8378C72.9935 43.8814 71.6141 42.2108 69.8483 41.0357C68.0824 39.8607 66.0086 39.2337 63.8875 39.2334ZM36.1125 67.0125C33.9829 67.0117 31.9009 67.6425 30.1297 68.825C28.3586 70.0076 26.978 71.6888 26.1624 73.6561C25.3469 75.6234 25.1331 77.7883 25.5481 79.8771C25.963 81.9659 26.9881 83.8848 28.4937 85.3909C29.9993 86.8971 31.9177 87.9229 34.0063 88.3387C36.095 88.7545 38.26 88.5415 40.2276 87.7267C42.1952 86.9119 43.877 85.5319 45.0602 83.7613C46.2435 81.9906 46.875 79.9088 46.875 77.7792V67.0125H36.1125Z" fill="#71C2F2"/>
</svg>
