<svg width="100" height="87" viewBox="0 0 100 87" fill="none" xmlns="http://www.w3.org/2000/svg">
<path d="M89.2857 0.665405H10.7143C4.79911 0.665405 0 4.77704 0 9.84487V77.1609C0 82.2288 4.79911 86.3404 10.7143 86.3404H89.2857C95.2009 86.3404 100 82.2288 100 77.1609V9.84487C100 4.77704 95.2009 0.665405 89.2857 0.665405ZM54.4196 67.4843C54.4196 75.8223 48.7054 79.6279 40.3795 79.6279C32.8571 79.6279 28.5045 76.3004 26.2723 72.2652L33.9286 68.3066C35.4018 70.5441 36.7411 72.4373 39.9777 72.4373C43.058 72.4373 45.0223 71.4047 45.0223 67.3695V40.0032H54.4196V67.4843ZM76.6518 79.6279C67.9241 79.6279 62.2768 76.0709 59.5313 71.4047L67.1875 67.6181C69.1964 70.4293 71.8304 72.5138 76.4509 72.5138C80.3348 72.5138 82.8348 70.8501 82.8348 68.5361C82.8348 65.7822 80.2902 64.8069 75.9821 63.1814L73.6384 62.3208C66.8527 59.8538 62.3661 56.7366 62.3661 50.1771C62.3661 44.134 67.7455 39.5443 76.1161 39.5443C82.0982 39.5443 86.3839 41.3228 89.4643 45.989L82.1429 50.005C80.5357 47.538 78.7946 46.5627 76.0938 46.5627C73.3482 46.5627 71.6071 48.0544 71.6071 50.005C71.6071 52.4146 73.3482 53.39 77.3884 54.9007L79.7321 55.7613C87.7232 58.6873 92.2098 61.6897 92.2098 68.4213C92.2098 75.6502 85.558 79.6279 76.6518 79.6279Z" fill="#71C2F2"/>
</svg>
