<svg width="98" height="101" viewBox="0 0 98 101" fill="none" xmlns="http://www.w3.org/2000/svg">
<path d="M97.5485 22.6614C97.5986 22.7614 97.5985 22.9115 97.5985 23.0616V44.5223C97.5985 45.0225 97.2984 45.6228 96.8482 45.873L78.7891 56.2782V76.8384C78.7891 77.3887 78.539 77.889 78.0388 78.1891L40.42 99.8499C40.3199 99.9 40.2199 100.05 40.1198 100.05H39.0193C39.0193 100.05 39.0193 99.9 38.8192 99.8499L1.20035 78.1891C0.969819 78.0474 0.77968 77.8486 0.648253 77.6121C0.516826 77.3755 0.448539 77.1091 0.449973 76.8384V12.5063C0.449973 12.2562 0.449973 12.1061 0.499998 12.006C0.499998 11.956 0.550023 11.906 0.550023 11.856C0.550023 11.7559 0.600048 11.7059 0.650073 11.6058C0.650073 11.5558 0.700098 11.5058 0.750123 11.4558L0.900199 11.3057L1.05027 11.1556C1.1003 11.1056 1.15032 11.0556 1.20035 11.0556L20.0098 0.200124C20.51 2.3815e-05 21.1103 2.3815e-05 21.5105 0.200124L40.42 11.0556C40.47 11.1056 40.52 11.1056 40.57 11.1556L40.7201 11.3057L40.8702 11.4558C40.9202 11.5058 40.9702 11.5558 40.9702 11.6058C41.0203 11.7059 41.0703 11.7559 41.0703 11.856C41.0703 11.906 41.1203 11.956 41.1203 12.006C41.1703 12.1561 41.1703 12.2562 41.1703 12.5063V52.5263L56.8782 43.6218V23.0616C56.8782 22.9115 56.8782 22.7614 56.9282 22.6614L56.9782 22.5113C56.9782 22.5113 57.0283 22.3612 57.0783 22.2612C57.0783 22.2111 57.1283 22.1611 57.1783 22.1111L57.3284 21.961L57.4785 21.8109C57.5285 21.7609 57.5785 21.7109 57.6286 21.7109L76.538 10.8555C76.9382 10.5553 77.5385 10.5553 78.0388 10.8555L96.8482 21.7109C96.8982 21.7109 96.9482 21.7609 96.9982 21.8109L97.1483 21.961L97.2984 22.1111C97.3484 22.1611 97.3484 22.2111 97.3984 22.2612C97.4485 22.3612 97.4485 22.5113 97.4985 22.5113C97.5485 22.5113 97.5485 22.5113 97.5485 22.6614ZM94.497 43.6218V25.7629L78.7891 34.7674V52.5263L94.497 43.6218ZM75.6876 75.938V58.029L41.1703 77.7389V95.7979L75.6876 75.938ZM3.55152 15.0075V75.938L38.0688 95.7979V77.7389L20.0598 67.5338H20.0098C19.9597 67.5338 19.9097 67.5338 19.8597 67.3837C19.8097 67.3837 19.7596 67.3337 19.7096 67.2837L19.5595 67.1336C19.5095 67.0836 19.5095 67.0335 19.4595 66.9835C19.4095 66.8835 19.4095 66.8334 19.3594 66.7834C19.3594 66.6834 19.3094 66.6333 19.3094 66.5833C19.2594 66.5333 19.2594 66.4332 19.2594 66.3832V24.1121L3.55152 15.0075ZM20.8102 3.40173L5.15232 12.5063L20.8102 21.4107L36.518 12.5063L20.8102 3.40173ZM38.0688 54.4272V15.0075L22.3609 24.1121V63.4818L38.0688 54.4272ZM77.2384 14.007L61.5305 23.0616L77.2384 32.0661L92.8962 23.0616L77.2384 14.007ZM75.6876 34.7674L59.9797 25.7629V43.6218L75.6876 52.5263V34.7674ZM39.6196 75.0375L74.0368 55.3277L58.429 46.3232L24.0118 66.1831L39.6196 75.0375Z" fill="#71C2F2"/>
</svg>
