<svg width="100" height="46" viewBox="0 0 100 46" fill="none" xmlns="http://www.w3.org/2000/svg">
<path d="M29.2156 16.7885H25.275L23.1281 26.2422H26.6281C28.9375 26.2422 30.6625 25.8673 31.8031 25.115C32.925 24.3761 33.6906 23.1204 34.0813 21.3774C34.4688 19.7041 34.2906 18.518 33.5781 17.8219C32.8438 17.1392 31.3937 16.7885 29.2156 16.7885ZM50 0.657471C22.3781 0.657471 0 10.7537 0 23.19C0 35.6263 22.3781 45.7225 50 45.7225C77.6219 45.7225 100 35.6263 100 23.19C100 10.7537 77.6219 0.657471 50 0.657471ZM36.4094 27.2622C35.3344 28.1538 34.0187 28.8231 32.6 29.2247C31.2 29.6022 29.4125 29.8111 27.2469 29.8111H22.3125L20.9625 35.8083H15.2156L20.3438 13.233H31.3781C34.7 13.233 37.125 13.9719 38.6531 15.4632C40.1688 16.9545 40.6406 19.0481 40.0187 21.7255C39.7938 22.7857 39.3531 23.8031 38.7531 24.7536C38.15 25.6558 37.3875 26.4965 36.4062 27.2622H36.4094ZM53.1906 29.8111L55.4531 19.8165C55.7125 18.684 55.6156 17.9076 55.1563 17.4846C54.7188 17.0803 53.7562 16.8715 52.2937 16.8715H47.7531L44.825 29.8111H39.1125L44.2375 7.22232H49.9344L48.5687 13.233H53.6469C56.8563 13.233 59.05 13.7068 60.2562 14.6546C61.4781 15.6185 61.8344 17.1633 61.3656 19.2998L58.9688 29.8137L53.1906 29.8111ZM84.8281 21.7255C84.6031 22.7857 84.1781 23.8031 83.5625 24.7536C82.975 25.6558 82.1969 26.4965 81.2344 27.2622C80.1438 28.1404 78.8438 28.8231 77.4094 29.2247C76.0094 29.6022 74.2188 29.8111 72.0563 29.8111H67.1406L65.775 35.8083H60.0281L65.1562 13.233H76.1906C79.5125 13.233 81.9375 13.9719 83.4656 15.4792C84.9812 16.9571 85.45 19.0481 84.8281 21.7255ZM74.025 16.7885H70.1L67.9531 26.2422H71.4375C73.7625 26.2422 75.4875 25.8673 76.6125 25.115C77.75 24.3761 78.5156 23.1204 78.9094 21.3774C79.2969 19.7041 79.1188 18.518 78.3844 17.8219C77.6719 17.1392 76.2062 16.7885 74.025 16.7885Z" fill="#75CCFF"/>
</svg>
