<svg width="88" height="100" viewBox="0 0 88 100" fill="none" xmlns="http://www.w3.org/2000/svg">
<path d="M26.8892 61.1916C25.2999 62.1852 22.9052 63.7957 21.0527 65.5471C18.0114 68.4192 17.3749 72.4032 18.9793 73.3339C20.4634 74.1942 23.9282 73.1705 26.408 70.4656C29.0104 67.6259 30.0837 64.0261 28.9752 59.9396C28.845 60.0171 28.7171 60.0951 28.5917 60.1675L28.5944 60.1734L28.4263 60.2684C27.7793 60.6546 27.2505 60.9735 26.8892 61.1912V61.1916ZM71.5522 59.902C70.6519 61.8588 70.6068 62.488 70.8803 62.6842C72.1866 62.2149 74.3478 61.0839 74.3649 58.0528C74.3676 57.5989 74.2675 57.1122 74.1068 56.6029C72.7102 57.8396 71.9053 59.1343 71.5522 59.902ZM85.5694 53.9868C82.0796 53.5801 79.3565 54.0695 77.2432 54.95C77.6345 55.9686 77.9353 57.0292 77.9777 58.098C78.0758 60.4437 76.4611 62.1797 74.7785 63.4194C73.7958 64.142 72.7502 64.6236 71.8725 64.9144C71.1708 65.2101 70.238 65.516 69.576 65.381C68.1165 65.0843 67.3396 63.7882 68.3325 60.928C68.8688 59.3804 70.4158 57.0247 72.9129 54.9951C72.3438 53.8234 71.7095 52.6299 71.3861 51.5327C70.749 49.3705 70.5566 48.0635 70.5566 48.0635C70.5566 48.0635 68.4983 52.3312 65.8428 56.2119C65.6897 56.4375 65.5369 56.6583 65.3838 56.8788C65.9054 58.0911 66.3162 59.3729 66.372 60.6649C66.4697 63.0106 65.4542 64.7842 63.7692 66.0208C62.8569 66.6935 61.8838 67.158 61.0488 67.4536C60.5149 67.6864 59.429 68.0702 57.8848 68.1735C57.0402 68.2312 56.2277 68.1789 55.7742 67.8351C55.1497 67.3634 55.0745 66.781 55.3979 65.986C55.6713 65.3106 57.717 62.9754 59.4321 60.9308C59.889 60.3834 60.332 59.8247 60.7607 59.2549L60.7508 59.2324C60.7508 59.2324 61.0614 58.8315 61.5656 58.1315C60.9387 56.7814 60.1441 55.3766 59.7705 54.1023C59.1334 51.9398 58.9406 50.6328 58.9406 50.6328C58.9406 50.6328 56.8543 55.9815 54.6808 60.2509C52.9988 63.5578 51.8753 65.5618 51.3691 66.4402L51.364 66.4754C51.364 66.4754 51.2884 66.6036 51.1582 66.8042L51.0608 66.9669L51.0581 66.9519C50.4937 67.7852 49.2277 69.4176 47.9692 69.4176C44.5143 69.4176 45.7828 62.4008 45.7828 62.4008C45.7828 62.4008 44.7727 65.0002 43.6342 67.2304C42.7069 69.0488 41.862 70.5896 40.0142 70.5896C39.4827 70.5896 38.6402 70.5746 37.9406 69.9095C36.3536 68.4018 35.1402 64.5733 35.3781 61.6082C35.5811 59.0871 35.9697 57.3405 36.5012 55.8838C35.439 56.4618 34.3859 57.0565 33.3424 57.6676L31.6272 58.6783L31.6826 58.7788C33.1014 61.5235 33.4801 67.5367 30.3861 72.1523C27.2925 76.7707 21.5336 79.5806 15.9226 78.0203C14.1121 77.5162 11.3771 73.7707 13.7362 68.5501C15.817 63.9461 24.1333 59.594 26.3249 58.5078L26.9265 58.1762C22.5569 54.3532 11.6454 49.1955 10.1162 41.273C9.68483 39.0427 10.7304 33.709 17.2789 27.5782C22.787 22.4225 30.449 18.4737 37.527 15.9574C49.4181 11.7307 61.9819 14.2238 63.9148 21.8056C65.8152 29.2615 59.347 38.18 51.0632 41.3861C43.667 44.2483 37.5519 43.7944 35.0397 42.9693C32.184 42.0311 30.5092 40.1468 30.1007 39.0831C29.9401 38.6664 29.6639 37.9668 30.1007 37.7261C30.3687 37.5778 30.4764 37.6133 31.1935 38.406C31.8757 39.1586 34.6183 41.178 39.8283 40.5935C53.5002 39.0609 61.7358 28.431 59.1334 22.711C57.3109 18.7075 46.7733 16.9011 33.6079 23.4663C17.5369 31.4788 16.6647 38.0843 16.5269 40.5931C16.1506 47.4947 25.0384 51.1249 29.8475 56.2574L30.0327 56.4607C30.9327 55.9641 31.8832 55.4398 32.8156 54.9281C34.74 53.8711 36.6655 52.8163 38.5924 51.7638C40.2849 49.3038 43.7193 46.589 46.1991 46.589C50.1629 46.589 48.8015 52.286 48.8015 52.286C48.8015 52.286 48.8818 52.0256 48.9895 52.0228C49.1023 52.0201 49.5388 51.2723 50.7624 51.7186C52.0209 52.1808 51.7348 53.064 51.7427 53.1542C51.7577 53.3292 50.2559 58.3943 49.6317 61.6434C49.333 63.1938 49.506 64.3231 49.5941 64.3231C49.7168 64.3231 49.9677 63.9287 50.2008 63.5052L50.1957 63.4925C50.1957 63.4925 50.371 63.1713 50.6646 62.5946L50.7224 62.474L50.7248 62.4795C51.2107 61.5206 51.6755 60.5511 52.1187 59.5718C53.2192 57.146 57.4186 47.7805 57.7747 46.7448C58.1305 45.7088 58.3161 44.6373 58.4918 44.1779C58.6648 43.7189 60.1492 43.3726 61.8838 43.3853C63.6188 43.3979 63.7948 44.1383 63.8068 44.291C63.8194 44.4438 62.982 46.4991 62.7889 47.9514C62.5985 49.404 62.7817 50.1286 62.9396 51.3481C63.0425 52.1456 63.5412 53.1569 64.1308 54.303C65.9259 51.3676 69.0845 45.7536 69.388 44.1806C69.5958 43.1047 69.9294 42.0735 70.1051 41.6137C70.2804 41.1547 71.7624 40.8088 73.4971 40.8211C75.232 40.8341 75.4074 41.5741 75.42 41.7269C75.4327 41.88 74.5925 43.9349 74.4021 45.3875C74.2114 46.8374 74.395 47.5648 74.5525 48.7843C74.6882 49.8275 75.4952 51.2299 76.2954 52.825C78.4788 51.7491 81.0487 51.0269 84.0576 51.0118C85.3034 51.0043 86.7503 51.1294 87.4974 51.3625V27.3625C87.4974 25.6692 86.6296 24.1086 85.1633 23.2633L46.0114 0.633934C45.2941 0.218515 44.4799 -0.000244141 43.651 -0.000244141C42.822 -0.000244141 42.0078 0.218515 41.2905 0.633934L2.24664 23.2524C0.782375 24.098 0 25.6607 0 27.3512V72.6291C0 74.3197 0.78716 75.8827 2.24903 76.728L41.3558 99.3635C42.0694 99.7802 42.881 99.9998 43.7074 99.9998C44.5337 99.9998 45.3453 99.7802 46.0589 99.3635L85.1835 76.7276C86.6474 75.88 87.5002 74.319 87.5002 72.6288V54.3303C87.0035 54.184 86.2765 54.0692 85.5694 53.9868ZM43.449 51.6154C42.6092 52.5561 41.1777 54.9821 40.5081 57.0124C39.1768 61.0432 39.7534 65.1404 40.6961 65.3864C41.7967 65.6746 43.6021 60.2861 44.4665 58.1786C45.0082 56.8586 47.1144 51.0012 46.653 50.2188C46.2927 49.6067 44.8004 50.1009 43.449 51.6158V51.6154ZM58.6805 65.2026C58.6805 65.2026 58.4149 65.4541 58.5298 65.5238C58.6853 65.6168 59.0213 65.4965 59.3873 65.3054C60.423 64.654 62.7468 63.028 62.752 60.6221C62.752 60.5517 62.7492 60.484 62.7445 60.4112C62.2642 61.0411 61.7761 61.665 61.2802 62.2826C60.5481 63.1935 58.6805 65.2026 58.6805 65.2026Z" fill="#71C2F2"/>
</svg>
