<svg width="94" height="100" viewBox="0 0 94 100" fill="none" xmlns="http://www.w3.org/2000/svg">
<path fill-rule="evenodd" clip-rule="evenodd" d="M24.3998 97.235C24.1264 97.235 23.8865 97.2584 23.6842 97.3037C23.4795 97.3483 23.31 97.4209 23.1764 97.5115C23.0522 97.5944 22.9498 97.7069 22.8803 97.8405C22.816 97.9786 22.7839 98.1295 22.7865 98.2819C22.7865 98.5647 22.8779 98.7928 23.0568 98.9615C23.2404 99.1287 23.4928 99.2115 23.8178 99.2115C24.0756 99.2139 24.3287 99.1451 24.5506 99.0139C24.7772 98.8772 25.0115 98.6725 25.2615 98.3967V97.235H24.3998ZM52.3052 94.8381C52.0482 94.8381 51.8302 94.9006 51.6513 95.024C51.4707 95.1483 51.3216 95.3131 51.2162 95.5053C51.1004 95.7164 51.0179 95.9441 50.9716 96.1803C50.9217 96.4335 50.8966 96.691 50.8966 96.949C50.8966 97.2225 50.9162 97.492 50.9623 97.7592C51.0037 98.0225 51.0787 98.2561 51.1834 98.4608C51.2873 98.6662 51.4294 98.8326 51.6029 98.9553C51.7779 99.0787 51.9959 99.1412 52.263 99.1412C52.3959 99.1412 52.5232 99.1209 52.6458 99.0865C52.7822 99.0447 52.9117 98.9831 53.0302 98.9037C53.176 98.8057 53.3125 98.6945 53.438 98.5717C53.599 98.4139 53.7505 98.2451 53.8896 98.067V95.8756C53.6162 95.5373 53.3521 95.2803 53.0982 95.1045C52.868 94.9356 52.5908 94.842 52.3052 94.8381ZM62.4529 94.8147C62.1529 94.8147 61.8966 94.8678 61.6818 94.9748C61.4698 95.0765 61.2867 95.2296 61.149 95.4201C61.0055 95.6285 60.9004 95.8608 60.8388 96.1061C60.7685 96.3897 60.7357 96.6811 60.7396 96.9725C60.7396 97.2748 60.7638 97.5545 60.8201 97.817C60.8747 98.0834 60.9701 98.3155 61.0966 98.51C61.2263 98.7084 61.399 98.8647 61.6169 98.9787C61.8349 99.0944 62.1044 99.1537 62.4302 99.1537C62.7224 99.1537 62.9794 99.099 63.1974 98.9944C63.4161 98.8873 63.5911 98.7404 63.731 98.549C63.8791 98.3447 63.9841 98.1124 64.0396 97.8662C64.1072 97.5809 64.14 97.2884 64.1372 96.9951C64.1372 96.6983 64.1122 96.4186 64.0536 96.1553C64.0046 95.9091 63.912 95.6736 63.7802 95.46C63.6516 95.2614 63.4744 95.0989 63.2654 94.9881C63.049 94.8741 62.7779 94.8147 62.4529 94.8147ZM57.4607 94.0608C57.5607 94.0608 57.6458 94.0639 57.7107 94.0709C57.7629 94.0777 57.814 94.0908 57.863 94.11C57.8943 94.1225 57.9216 94.142 57.9412 94.1678C57.9572 94.1921 57.9654 94.2207 57.9646 94.2498V99.7334C57.9656 99.7621 57.9573 99.7902 57.9412 99.8139C57.9206 99.8398 57.8937 99.86 57.863 99.8725C57.8138 99.8902 57.7627 99.9023 57.7107 99.9084C57.5466 99.924 57.381 99.924 57.2162 99.9084C57.1632 99.9026 57.111 99.8908 57.0607 99.8733C57.0291 99.8625 57.0018 99.842 56.9826 99.8147C56.9676 99.7902 56.9595 99.7621 56.9591 99.7334V94.2491C56.9605 94.2205 56.9685 94.1927 56.9826 94.1678C56.9951 94.1452 57.0216 94.1264 57.0607 94.11C57.111 94.0907 57.1635 94.0776 57.2169 94.0709C57.2818 94.0631 57.363 94.0608 57.4607 94.0608ZM44.4381 94.0608C44.5357 94.0608 44.617 94.0639 44.6818 94.0709C44.7355 94.0718 44.7884 94.0837 44.8373 94.1061C44.8695 94.1185 44.8982 94.1386 44.9209 94.1647C44.9376 94.1899 44.9463 94.2196 44.9459 94.2498V97.4405C44.9459 97.7623 44.9677 98.0186 45.0138 98.2115C45.0548 98.3877 45.1273 98.555 45.2279 98.7053C45.3216 98.8412 45.4427 98.9467 45.5888 99.0209C45.7357 99.0951 45.9084 99.1342 46.1029 99.1342C46.3529 99.1342 46.6037 99.0475 46.8545 98.8686C47.1045 98.6889 47.3685 98.4256 47.6513 98.0803V94.2491C47.651 94.22 47.6577 94.1913 47.6709 94.1655C47.6922 94.1392 47.7203 94.1192 47.7521 94.1076C47.8013 94.0852 47.8543 94.0725 47.9084 94.0702C47.9693 94.0647 48.0545 94.0616 48.1552 94.0616C48.2529 94.0616 48.3349 94.0639 48.399 94.0709C48.452 94.0713 48.5043 94.0833 48.5521 94.1061C48.5831 94.1195 48.6108 94.1395 48.6334 94.1647C48.6521 94.1889 48.6613 94.2192 48.6591 94.2498V99.7334C48.6599 99.7615 48.6532 99.7893 48.6396 99.8139C48.6211 99.8405 48.5949 99.861 48.5646 99.8725C48.5191 99.889 48.472 99.9008 48.424 99.9076C48.2755 99.9248 48.1256 99.9248 47.9771 99.9076C47.9289 99.9029 47.8815 99.8913 47.8365 99.8733C47.8069 99.8618 47.7818 99.8413 47.7646 99.8147C47.7522 99.7895 47.7468 99.7614 47.749 99.7334V99.0069C47.4334 99.3529 47.124 99.6022 46.8224 99.7623C46.5375 99.9157 46.2194 99.9972 45.8959 99.9998C45.531 99.9998 45.2209 99.9373 44.9716 99.8178C44.7316 99.7048 44.5235 99.5338 44.3662 99.3201C44.2056 99.1018 44.0927 98.8521 44.0349 98.5873C43.9618 98.2555 43.9282 97.9161 43.9349 97.5764V94.2498C43.9349 94.2162 43.9404 94.1873 43.956 94.1647C43.9767 94.1372 44.0054 94.1168 44.0381 94.1061C44.0881 94.0839 44.1419 94.0717 44.1966 94.0702C44.2623 94.0647 44.3404 94.0616 44.4388 94.0616L44.4381 94.0608ZM16.3662 94.0608C16.4647 94.0608 16.5459 94.0639 16.6108 94.0709C16.6647 94.0717 16.7179 94.0836 16.767 94.1061C16.7977 94.1196 16.8252 94.1396 16.8475 94.1647C16.8639 94.1897 16.8725 94.2194 16.8709 94.2498V97.4405C16.8709 97.7623 16.8936 98.0186 16.9428 98.2115C16.9873 98.4061 17.0592 98.5694 17.1537 98.7053C17.2514 98.8412 17.3725 98.9467 17.5178 99.0209C17.6647 99.0951 17.8342 99.1342 18.0279 99.1342C18.2819 99.1342 18.5326 99.0475 18.7834 98.8686C19.0303 98.6889 19.2967 98.4256 19.5772 98.0803V94.2491C19.5772 94.2178 19.5834 94.1881 19.599 94.1655C19.6199 94.1383 19.6485 94.1181 19.6811 94.1076C19.73 94.0844 19.7832 94.0716 19.8373 94.0702C19.9193 94.0623 20.0014 94.06 20.0842 94.0616C20.1787 94.0616 20.2592 94.0639 20.3256 94.0709C20.3783 94.0717 20.4302 94.0837 20.4779 94.1061C20.5093 94.1205 20.5378 94.1404 20.5623 94.1647C20.579 94.1899 20.5878 94.2196 20.5873 94.2498V99.7334C20.5887 99.7619 20.5811 99.7901 20.5654 99.8139C20.5469 99.8405 20.5208 99.861 20.4904 99.8725C20.4449 99.8899 20.3974 99.9017 20.349 99.9076C20.2006 99.9252 20.0506 99.9252 19.9022 99.9076C19.854 99.9021 19.8068 99.8905 19.7615 99.8733C19.7264 99.8561 19.7037 99.8365 19.6951 99.8147C19.6809 99.79 19.6736 99.7619 19.674 99.7334V99.0069C19.3631 99.3529 19.0529 99.6022 18.7475 99.7623C18.4647 99.9162 18.1459 99.9983 17.8233 99.9998C17.4569 99.9998 17.1506 99.9373 16.899 99.8178C16.6589 99.7039 16.4503 99.533 16.2912 99.3201C16.1332 99.1003 16.0206 98.8512 15.96 98.5873C15.8884 98.2552 15.8548 97.9161 15.86 97.5764V94.2498C15.86 94.2162 15.8662 94.1873 15.8819 94.1647C15.9031 94.1381 15.9312 94.1179 15.9631 94.1061C16.0134 94.0838 16.0675 94.0716 16.1225 94.0702C16.1873 94.0647 16.2686 94.0616 16.367 94.0616L16.3662 94.0608ZM8.59281 94.0608C8.67652 94.06 8.76022 94.0633 8.84359 94.0709C8.89502 94.0776 8.94542 94.0907 8.99359 94.11C9.02524 94.1214 9.05309 94.1415 9.07406 94.1678C9.09124 94.1936 9.09749 94.2194 9.09749 94.2498V99.7334C9.09841 99.762 9.0902 99.7902 9.07406 99.8139C9.0532 99.8405 9.02533 99.8608 8.99359 99.8725C8.94516 99.8903 8.89482 99.9023 8.84359 99.9084C8.67953 99.924 8.5139 99.924 8.34984 99.9084C8.29661 99.9026 8.2442 99.8908 8.19359 99.8733C8.16201 99.8625 8.13466 99.842 8.11546 99.8147C8.09901 99.7909 8.09078 99.7623 8.09203 99.7334V94.2491C8.09203 94.2201 8.09984 94.192 8.11546 94.1678C8.12875 94.1452 8.15453 94.1264 8.19359 94.11C8.24391 94.0907 8.29637 94.0776 8.34984 94.0709C8.4139 94.0631 8.49671 94.0608 8.59359 94.0608H8.59281ZM62.4911 93.9733C62.9443 93.9733 63.3372 94.0405 63.6724 94.1748C63.995 94.2991 64.2818 94.4991 64.5083 94.7608C64.7333 95.0162 64.8982 95.3264 65.0122 95.6936C65.1232 96.0584 65.1786 96.4709 65.1786 96.9295C65.1786 97.3748 65.12 97.7873 65.0021 98.1623C64.8957 98.5191 64.7167 98.8499 64.4763 99.1342C64.2362 99.4116 63.9355 99.63 63.5974 99.7725C63.2458 99.9248 62.8396 99.999 62.3779 99.999C61.9255 99.999 61.5326 99.9311 61.1974 99.7983C60.8751 99.6741 60.5881 99.473 60.3615 99.2123C60.1291 98.9423 59.9579 98.6251 59.8599 98.2826C59.7446 97.8788 59.6888 97.4604 59.6943 97.0405C59.6943 96.5912 59.7529 96.1819 59.8701 95.8045C59.9744 95.448 60.153 95.1175 60.3943 94.835C60.6321 94.5578 60.9319 94.3405 61.2693 94.2006C61.6169 94.0483 62.0271 93.9733 62.4927 93.9733H62.4911ZM24.0967 93.9733C24.4912 93.9733 24.8264 94.0194 25.1022 94.11C25.3795 94.1975 25.6029 94.328 25.7725 94.5037C25.9412 94.6756 26.0654 94.8866 26.1428 95.1444C26.2209 95.4006 26.26 95.6998 26.26 96.0412V99.7389C26.26 99.7889 26.2443 99.824 26.2115 99.8475C26.1717 99.875 26.1264 99.8937 26.0787 99.9022C25.9958 99.9177 25.9115 99.9242 25.8272 99.9217C25.7423 99.9235 25.6576 99.917 25.574 99.9022C25.5246 99.8955 25.4777 99.8767 25.4373 99.8475C25.4084 99.824 25.3959 99.7889 25.3959 99.7389V99.1897C25.1673 99.4377 24.8944 99.6409 24.5912 99.7889C24.3004 99.9286 23.9818 100.001 23.6592 99.9998C23.3693 99.9998 23.1092 99.9639 22.8748 99.8858C22.6563 99.819 22.4538 99.7085 22.2795 99.5608C22.1128 99.4182 21.9818 99.2387 21.8967 99.0365C21.8023 98.8135 21.7554 98.5732 21.7592 98.3311C21.7592 98.0233 21.8209 97.753 21.9483 97.528C22.0764 97.2951 22.2623 97.0998 22.4873 96.9592C22.7541 96.7966 23.0473 96.6821 23.3537 96.6209C23.7322 96.5428 24.118 96.5056 24.5045 96.51H25.2623V96.0842C25.2623 95.8725 25.2389 95.6834 25.1936 95.5217C25.1547 95.3721 25.0811 95.2337 24.9787 95.1178C24.8713 95.0066 24.7386 94.923 24.592 94.8741C24.4028 94.8133 24.2047 94.7846 24.0061 94.7889C23.76 94.7889 23.535 94.8225 23.3404 94.8811C23.1622 94.9322 22.9882 94.9972 22.8201 95.0756C22.6732 95.1436 22.549 95.2084 22.4483 95.267C22.3514 95.3295 22.2764 95.3584 22.2279 95.3584C22.1975 95.3586 22.1678 95.3493 22.1428 95.3319C22.1157 95.3138 22.0934 95.2894 22.0779 95.2608C22.0564 95.2217 22.0431 95.1786 22.0389 95.1342C22.0291 95.079 22.0247 95.023 22.0256 94.967C22.0256 94.8678 22.0318 94.7858 22.049 94.7272C22.0668 94.663 22.1013 94.6048 22.149 94.5584C22.2045 94.5061 22.2983 94.4444 22.4318 94.3725C22.5693 94.3014 22.7209 94.2366 22.8983 94.178C23.0848 94.1163 23.2754 94.0675 23.4686 94.0319C23.6757 93.9929 23.8859 93.9733 24.0967 93.9733ZM12.3858 93.9733C12.5319 93.9733 12.6787 93.9858 12.824 94.0123C12.9709 94.035 13.1006 94.067 13.2217 94.103C13.3964 94.1508 13.5614 94.2288 13.7092 94.3334C13.7428 94.3569 13.7733 94.3858 13.7975 94.4194C13.8109 94.4461 13.8206 94.4744 13.8264 94.5037C13.8342 94.5326 13.8397 94.5686 13.8459 94.6131C13.8537 94.7287 13.8537 94.8444 13.8459 94.9592C13.8418 95.002 13.8304 95.0437 13.8123 95.0826C13.7998 95.1147 13.7842 95.1405 13.7608 95.1537C13.7418 95.1673 13.7193 95.1752 13.6959 95.1764C13.6569 95.1764 13.6053 95.1537 13.5381 95.1084C13.4532 95.0536 13.3641 95.0055 13.2717 94.9647C13.1457 94.9083 13.0159 94.8605 12.8834 94.8217C12.7176 94.7745 12.5457 94.7518 12.3733 94.7545C12.2213 94.752 12.0697 94.7715 11.9233 94.8123C11.8058 94.8448 11.6964 94.9015 11.6022 94.9787C11.5206 95.0463 11.4559 95.1319 11.4131 95.2287C11.3709 95.3294 11.3499 95.4376 11.3514 95.5467C11.3514 95.703 11.3905 95.8365 11.4725 95.9444C11.553 96.0545 11.66 96.1491 11.7905 96.2295C11.9178 96.3076 12.067 96.3826 12.2326 96.4483L12.7436 96.6498C12.9155 96.7178 13.085 96.7959 13.2537 96.8811C13.4233 96.9655 13.5733 97.0701 13.7037 97.1889C13.8334 97.3139 13.9365 97.4592 14.0147 97.6287C14.0928 97.8006 14.1358 98.0037 14.1358 98.2405C14.1358 98.5201 14.0834 98.7709 13.9795 98.9881C13.8769 99.2051 13.7256 99.3955 13.5373 99.5444C13.3339 99.7004 13.1019 99.8153 12.8545 99.8826C12.5711 99.9636 12.2774 100.003 11.9826 99.9998C11.7912 99.9998 11.6022 99.9834 11.4264 99.9537C11.2653 99.9283 11.1067 99.8894 10.9522 99.8373C10.8286 99.7989 10.7086 99.7497 10.5936 99.6904C10.5174 99.6549 10.4465 99.6092 10.3826 99.5545C10.3335 99.5092 10.2992 99.4501 10.2842 99.385C10.2504 99.2224 10.2438 99.0552 10.2647 98.8905C10.2717 98.847 10.283 98.8044 10.2983 98.7631C10.3073 98.7355 10.3241 98.711 10.3467 98.6928C10.3703 98.6795 10.397 98.6725 10.4241 98.6725C10.4701 98.6725 10.535 98.6983 10.6241 98.7537C10.71 98.8084 10.8178 98.867 10.9451 98.9334C11.0717 98.9983 11.2241 99.06 11.3998 99.1154C11.5733 99.167 11.7748 99.1959 12.0014 99.1959C12.1709 99.1959 12.3264 99.1772 12.4639 99.1412C12.5928 99.11 12.7155 99.0553 12.824 98.978C12.9239 98.9096 13.0046 98.8168 13.0584 98.7084C13.1155 98.5863 13.1433 98.4525 13.1397 98.3178C13.1439 98.1787 13.1031 98.0419 13.0233 97.928C12.9351 97.8168 12.828 97.7221 12.7069 97.6483C12.5677 97.5629 12.4213 97.4899 12.2694 97.4303C12.1018 97.3661 11.9346 97.301 11.7678 97.235C11.5949 97.1638 11.4255 97.0845 11.26 96.9975C11.0989 96.9134 10.951 96.8063 10.8209 96.6795C10.6885 96.5506 10.5814 96.398 10.5053 96.2295C10.423 96.0311 10.3834 95.8177 10.3889 95.603C10.384 95.3884 10.4259 95.1754 10.5119 94.9788C10.5979 94.7822 10.7257 94.6067 10.8866 94.4647C11.0537 94.3178 11.2616 94.1983 11.5116 94.11C11.7928 94.014 12.0886 93.9677 12.3858 93.9733ZM40.542 92.5905C40.642 92.5905 40.7263 92.5983 40.792 92.6037C40.8444 92.6103 40.8959 92.6234 40.9451 92.6428C40.9763 92.6569 41.0029 92.6795 41.0232 92.7077C41.0397 92.7304 41.0484 92.7577 41.0482 92.7858V94.0905H42.4545C42.4852 94.0895 42.5155 94.0974 42.542 94.1131C42.569 94.1307 42.5904 94.1557 42.6037 94.185C42.6254 94.2251 42.6387 94.2692 42.6427 94.3147C42.6521 94.3694 42.6552 94.4342 42.6552 94.51C42.6552 94.6561 42.6357 94.7631 42.6006 94.8287C42.5646 94.8936 42.5146 94.9256 42.4545 94.9256H41.0482V97.9834C41.0482 98.3608 41.1037 98.6467 41.2154 98.8381C41.3287 99.0303 41.5271 99.128 41.817 99.128C41.9084 99.128 41.9912 99.1178 42.067 99.1022C42.1316 99.0847 42.1957 99.0652 42.2592 99.0436C42.3088 99.0275 42.3573 99.0082 42.4045 98.9858C42.4391 98.9691 42.4769 98.96 42.5154 98.9592C42.5349 98.9592 42.5545 98.9631 42.5732 98.9725C42.5942 98.9858 42.6095 99.0064 42.6162 99.0303C42.6451 99.1273 42.6583 99.2283 42.6552 99.3295C42.6552 99.4467 42.649 99.5405 42.6318 99.6092C42.6213 99.666 42.5957 99.7189 42.5576 99.7623C42.5145 99.8013 42.4647 99.8322 42.4107 99.8537C42.3396 99.884 42.2658 99.9078 42.1904 99.9248C42.102 99.9423 42.0131 99.9576 41.924 99.9709C41.8311 99.9811 41.7377 99.9863 41.6443 99.9865C41.3956 99.9925 41.1477 99.9555 40.9115 99.8772C40.7191 99.808 40.5479 99.6901 40.4146 99.535C40.2761 99.3665 40.179 99.168 40.131 98.9553C40.0682 98.6846 40.0386 98.4073 40.0427 98.1295V94.9264H39.2771C39.2146 94.9264 39.1654 94.8936 39.1295 94.8287C39.0904 94.7631 39.0748 94.6561 39.0748 94.5092C39.0748 94.435 39.0779 94.3694 39.0881 94.3147C39.0979 94.2703 39.1118 94.2269 39.1295 94.185C39.142 94.1549 39.164 94.1297 39.192 94.1131C39.2183 94.0971 39.2487 94.089 39.2795 94.0897H40.0443V92.7858C40.0443 92.7569 40.0498 92.7303 40.0631 92.7084C40.0834 92.6792 40.1116 92.6562 40.1443 92.642C40.1937 92.6223 40.2454 92.6092 40.2982 92.603C40.3787 92.5951 40.4599 92.5905 40.542 92.5905ZM0.651415 91.9631C0.764696 91.9631 0.852977 91.9662 0.921727 91.9733C0.974615 91.9774 1.02681 91.9879 1.0772 92.0045C1.1095 92.019 1.13749 92.0416 1.15845 92.0701C1.17946 92.1019 1.19676 92.136 1.21001 92.1717L3.47094 98.8061H3.47719L5.67562 92.1842C5.68555 92.1459 5.69942 92.1087 5.71703 92.0733C5.73731 92.0419 5.76759 92.0182 5.80297 92.0061C5.85877 91.9883 5.91645 91.977 5.97484 91.9725C6.1725 91.9569 6.37094 91.96 6.56703 91.9795C6.6389 91.9897 6.68734 92.0084 6.71312 92.0381C6.74281 92.0678 6.75218 92.1069 6.74672 92.1616C6.735 92.2366 6.71547 92.3092 6.68812 92.3803L4.1186 99.7006C4.10454 99.7422 4.08131 99.7801 4.05063 99.8115C4.01629 99.8436 3.97476 99.8669 3.92953 99.8795C3.86591 99.8979 3.80037 99.909 3.73422 99.9123C3.63698 99.9192 3.53951 99.9223 3.44203 99.9217C3.34985 99.9217 3.2725 99.9186 3.20454 99.9186C3.10486 99.9159 3.00579 99.902 2.90922 99.8772C2.87674 99.87 2.8463 99.8556 2.82016 99.835C2.79614 99.8216 2.77597 99.8022 2.76157 99.7787C2.74415 99.7531 2.73097 99.7249 2.72251 99.6951L0.144385 92.3733C0.116918 92.3031 0.0993028 92.2295 0.092041 92.1545C0.092041 92.0998 0.109228 92.0608 0.143603 92.0319C0.197812 91.9983 0.259616 91.9789 0.323291 91.9756C0.401415 91.9686 0.511572 91.9631 0.651415 91.9631ZM36.1763 91.885C36.5246 91.8863 36.8703 91.9432 37.2006 92.0537C37.3568 92.103 37.4974 92.1616 37.6209 92.2233C37.742 92.2858 37.8224 92.3373 37.8631 92.3764C37.8916 92.4033 37.9166 92.4337 37.9373 92.467C37.9513 92.4936 37.9615 92.5217 37.9654 92.5522C37.976 92.5936 37.9826 92.636 37.9849 92.6787C37.9881 92.728 37.9912 92.7889 37.9912 92.8678C37.9912 92.9389 37.9881 93.0037 37.9818 93.0592C37.9767 93.1081 37.9683 93.1567 37.9568 93.2045C37.9465 93.2371 37.928 93.2665 37.9029 93.2897C37.8806 93.3064 37.8534 93.3154 37.8256 93.3155C37.7842 93.3155 37.7115 93.2873 37.6178 93.2319C37.5027 93.1638 37.3854 93.0994 37.2662 93.0389C37.1085 92.9593 36.9441 92.894 36.7748 92.8436C36.5679 92.7828 36.3529 92.7536 36.1373 92.7569C35.9209 92.7569 35.7279 92.7858 35.5662 92.8452C35.4181 92.8941 35.2819 92.9734 35.1662 93.078C35.0605 93.1738 34.9789 93.2932 34.9279 93.4264C34.8748 93.5621 34.8472 93.7064 34.8467 93.8522C34.8467 94.0709 34.8982 94.2623 34.9998 94.4186C35.0998 94.578 35.2365 94.7186 35.406 94.8381C35.5756 94.9616 35.767 95.0717 35.9818 95.1764C36.1967 95.2772 36.4146 95.378 36.6396 95.4819C36.8623 95.5858 37.081 95.7006 37.2959 95.8233C37.5138 95.9475 37.7053 96.0936 37.8717 96.2631C38.042 96.435 38.181 96.6358 38.281 96.8569C38.3857 97.0889 38.4373 97.3584 38.4373 97.6709C38.4373 98.0412 38.3685 98.3701 38.2318 98.66C38.0992 98.9432 37.9061 99.1938 37.6662 99.3944C37.4141 99.6009 37.1232 99.755 36.8107 99.8475C36.468 99.9511 36.1117 100.002 35.7537 99.9998C35.4904 99.9998 35.2459 99.9764 35.0217 99.9311C34.8159 99.8934 34.6137 99.8388 34.417 99.7678C34.2645 99.7137 34.1168 99.6468 33.9756 99.5678C33.8843 99.521 33.7999 99.4619 33.7248 99.392C33.6748 99.3398 33.6388 99.2759 33.6201 99.2061C33.5951 99.1071 33.5841 99.005 33.5873 98.903C33.5873 98.8123 33.5912 98.7405 33.5982 98.6826C33.605 98.6323 33.6178 98.583 33.6365 98.5358C33.6478 98.5055 33.6679 98.4794 33.6943 98.4608C33.7218 98.4475 33.7521 98.4411 33.7826 98.442C33.8389 98.442 33.9201 98.474 34.0248 98.5428C34.124 98.6139 34.2576 98.6889 34.4209 98.7709C34.5826 98.8514 34.7787 98.9264 35.0092 98.9975C35.267 99.074 35.5365 99.1092 35.806 99.1053C36.017 99.1061 36.2256 99.0756 36.4271 99.0139C36.6044 98.9583 36.7698 98.8701 36.9146 98.7537C37.0513 98.6436 37.1568 98.5069 37.231 98.3412C37.3067 98.1665 37.3442 97.9777 37.3412 97.7873C37.3464 97.5862 37.2933 97.3878 37.1881 97.2162C37.0815 97.053 36.9447 96.9116 36.7849 96.7998C36.6063 96.6721 36.4155 96.5622 36.2154 96.4717L35.5623 96.1655C35.3385 96.062 35.1203 95.947 34.9084 95.8209C34.7007 95.698 34.5102 95.5479 34.342 95.3748C34.1728 95.2005 34.0353 94.998 33.9357 94.7764C33.8281 94.5144 33.776 94.233 33.7826 93.9498C33.7826 93.6217 33.8412 93.3287 33.9623 93.0694C34.0818 92.8116 34.2482 92.5975 34.4599 92.4217C34.6861 92.2398 34.9457 92.1039 35.224 92.0217C35.533 91.9285 35.8536 91.8824 36.1763 91.885ZM57.4662 91.7998C57.7005 91.7998 57.863 91.8389 57.9513 91.9248C58.0388 92.0084 58.0818 92.1655 58.0818 92.3951C58.0818 92.6334 58.0365 92.7928 57.949 92.8764C57.8568 92.9647 57.6943 93.0077 57.4537 93.0077C57.2208 93.0077 57.0576 92.9647 56.9693 92.8803C56.881 92.7991 56.8396 92.6397 56.8396 92.4084C56.8396 92.1741 56.8841 92.0123 56.9724 91.9272C57.0638 91.8428 57.2263 91.7998 57.4662 91.7998ZM8.60062 91.7998C8.83343 91.7998 8.99671 91.8389 9.08499 91.9248C9.16937 92.0084 9.2139 92.1655 9.2139 92.3951C9.2139 92.6334 9.16937 92.7928 9.08109 92.8764C8.99046 92.9647 8.82484 93.0077 8.58734 93.0077C8.34906 93.0077 8.19046 92.9647 8.10296 92.8803C8.01468 92.7991 7.9725 92.6397 7.9725 92.4084C7.9725 92.1741 8.01468 92.0123 8.10531 91.9272C8.19359 91.8428 8.35999 91.7998 8.60062 91.7998ZM54.3865 91.4233C54.4872 91.4233 54.5724 91.4264 54.6365 91.4366C54.7021 91.4459 54.7537 91.4584 54.7904 91.4717C54.8225 91.4846 54.8504 91.5062 54.8708 91.5342C54.8899 91.5583 54.9006 91.5879 54.9013 91.6186V99.7334C54.9003 99.7628 54.8923 99.7914 54.8779 99.817C54.8599 99.8429 54.835 99.8632 54.806 99.8756C54.7605 99.8909 54.7137 99.9022 54.6662 99.9092C54.5269 99.9267 54.3859 99.9267 54.2466 99.9092C54.1989 99.9018 54.1519 99.8906 54.106 99.8756C54.0759 99.863 54.0495 99.8428 54.0294 99.817C54.0127 99.7923 54.0034 99.7633 54.0029 99.7334V99.0069C53.7451 99.2975 53.4412 99.5451 53.1044 99.7397C52.7966 99.9115 52.456 99.9998 52.0841 99.9998C51.6849 99.9998 51.3388 99.9217 51.056 99.7654C50.7759 99.6148 50.5378 99.3968 50.363 99.1311C50.179 98.8447 50.0482 98.5273 49.9771 98.1944C49.8945 97.8204 49.8539 97.4383 49.856 97.0553C49.856 96.585 49.9045 96.1615 50.006 95.7819C50.1091 95.4006 50.2591 95.0787 50.4584 94.8092C50.6508 94.5454 50.9051 94.3329 51.199 94.1905C51.5174 94.041 51.866 93.9667 52.2177 93.9733C52.5248 93.9702 52.828 94.0427 53.1005 94.1842C53.3944 94.3475 53.6606 94.5561 53.8896 94.8022V91.6186C53.8896 91.5889 53.8958 91.56 53.9083 91.5334C53.9283 91.5046 53.9571 91.4829 53.9904 91.4717C54.1185 91.4327 54.2521 91.4162 54.3865 91.4233ZM28.8686 91.3975C28.9701 91.3975 29.0521 91.4006 29.1162 91.41C29.1686 91.4138 29.22 91.426 29.2686 91.4459C29.3012 91.4583 29.3295 91.48 29.3498 91.5084C29.3669 91.5331 29.3752 91.5628 29.3732 91.5928V99.7334C29.3741 99.762 29.3659 99.7902 29.3498 99.8139C29.3279 99.8398 29.3 99.8599 29.2686 99.8725C29.2194 99.8907 29.1683 99.9027 29.1162 99.9084C28.9521 99.924 28.7881 99.924 28.624 99.9084C28.5713 99.9025 28.5194 99.8907 28.4693 99.8733C28.4371 99.8617 28.4087 99.8414 28.3873 99.8147C28.3736 99.7898 28.3669 99.7618 28.3678 99.7334V91.592C28.3678 91.5631 28.374 91.5334 28.3873 91.5076C28.4073 91.4791 28.4357 91.4575 28.4686 91.4459C28.5187 91.4267 28.5713 91.4143 28.6248 91.4092C28.7056 91.3992 28.7871 91.3958 28.8686 91.3975ZM84.8841 94.8381C84.6263 94.8381 84.4091 94.9006 84.2302 95.024C84.0495 95.1483 83.9005 95.3131 83.795 95.5053C83.6795 95.7165 83.597 95.9441 83.5505 96.1803C83.5012 96.4336 83.4763 96.691 83.4763 96.949C83.4763 97.2225 83.495 97.492 83.5411 97.7592C83.5825 98.0225 83.6552 98.2561 83.7614 98.4608C83.8653 98.667 84.0067 98.8326 84.1809 98.9553C84.3567 99.0787 84.5747 99.1412 84.8388 99.1412C84.9755 99.1412 85.102 99.1209 85.2263 99.0865C85.3614 99.0436 85.4895 98.9819 85.6067 98.9037C85.7364 98.8194 85.8723 98.7084 86.0161 98.5717C86.1598 98.435 86.3083 98.2662 86.4684 98.067V95.8756C86.195 95.5381 85.9317 95.2803 85.677 95.1045C85.4466 94.9366 85.17 94.8438 84.8849 94.8389L84.8841 94.8381ZM78.3958 94.8147C78.0958 94.8147 77.8396 94.8678 77.6255 94.9748C77.4133 95.0765 77.2299 95.2296 77.0919 95.4201C76.9471 95.6276 76.8422 95.8602 76.7825 96.1061C76.7122 96.3897 76.6786 96.6811 76.6817 96.9725C76.6817 97.2748 76.7075 97.5545 76.763 97.817C76.8185 98.0842 76.9122 98.3155 77.0388 98.51C77.17 98.7084 77.3419 98.8647 77.5599 98.9787C77.7786 99.0944 78.0474 99.1537 78.3692 99.1537C78.6661 99.1537 78.9224 99.099 79.1403 98.9944C79.3515 98.8914 79.5344 98.7386 79.6731 98.549C79.8138 98.3615 79.9153 98.1326 79.9833 97.8662C80.0505 97.5811 80.0833 97.2881 80.081 96.9951C80.0816 96.713 80.0528 96.4315 79.995 96.1553C79.946 95.9092 79.8537 95.6738 79.7224 95.46C79.5942 95.2608 79.4165 95.0982 79.2067 94.9881C78.9911 94.8741 78.7177 94.8147 78.3958 94.8147ZM91.2333 94.76C91.0072 94.7567 90.7834 94.8048 90.5786 94.9006C90.3974 94.9894 90.2369 95.1153 90.1075 95.2701C89.9765 95.4308 89.8759 95.614 89.8106 95.8108C89.7419 96.0188 89.703 96.2356 89.695 96.4545H92.6864C92.6997 95.9272 92.5825 95.5108 92.3348 95.2123C92.0887 94.91 91.7208 94.76 91.2333 94.76ZM91.2848 93.9733C91.7177 93.9733 92.0817 94.0451 92.3841 94.1811C92.6723 94.3092 92.9286 94.5006 93.1341 94.7405C93.327 94.9717 93.47 95.2483 93.5614 95.5608C93.6536 95.8889 93.6997 96.228 93.6981 96.5686V96.7545C93.6981 96.91 93.6591 97.024 93.5778 97.0912C93.5024 97.1554 93.4065 97.1903 93.3075 97.1897H89.695C89.695 97.4951 89.727 97.7678 89.788 98.0123C89.8481 98.2569 89.9512 98.4678 90.0942 98.6397C90.238 98.8147 90.4231 98.949 90.6505 99.0428C90.8786 99.1381 91.1583 99.1834 91.4895 99.1834C91.9072 99.1845 92.3221 99.1143 92.7161 98.9756C92.8661 98.9233 92.9895 98.874 93.0833 98.8326C93.1516 98.7982 93.2258 98.777 93.302 98.7701C93.3309 98.7701 93.3567 98.7772 93.3801 98.7897C93.4024 98.8067 93.4201 98.829 93.4317 98.8545C93.4436 98.8928 93.4522 98.932 93.4575 98.9717C93.47 99.0795 93.4708 99.1889 93.4606 99.2967C93.4571 99.3319 93.4513 99.3669 93.4434 99.4014C93.4324 99.4588 93.4031 99.5112 93.3598 99.5506C93.2996 99.5973 93.2327 99.6347 93.1614 99.6615C93.0239 99.7239 92.8811 99.7741 92.7348 99.8115C92.5355 99.8645 92.3337 99.9078 92.1302 99.9412C91.8872 99.9811 91.6412 100.001 91.395 99.9998C90.9427 99.9998 90.5497 99.9373 90.2114 99.8115C89.8857 99.6942 89.5918 99.5027 89.3528 99.2522C89.1117 98.983 88.933 98.664 88.8294 98.3178C88.7122 97.9428 88.6536 97.5115 88.6536 97.0139C88.6536 96.542 88.7161 96.1201 88.8356 95.7451C88.945 95.3936 89.1247 95.067 89.3622 94.7858C89.5919 94.5261 89.8763 94.3207 90.195 94.1842C90.5399 94.0398 90.9109 93.968 91.2848 93.9733ZM78.4349 93.9733C78.888 93.9733 79.2802 94.0405 79.6145 94.1748C79.9364 94.2998 80.2239 94.5006 80.4505 94.7608C80.6763 95.0162 80.8411 95.3264 80.956 95.6936C81.0653 96.0584 81.1216 96.4709 81.1216 96.9295C81.1216 97.3748 81.063 97.7873 80.9466 98.1623C80.8399 98.5197 80.6601 98.8509 80.4185 99.135C80.1786 99.4121 79.8781 99.6303 79.5403 99.7725C79.1888 99.9248 78.7825 99.999 78.3216 99.999C77.8685 99.999 77.4755 99.9311 77.1403 99.7983C76.818 99.6742 76.531 99.473 76.3044 99.2123C76.0723 98.9422 75.9014 98.6251 75.8036 98.2826C75.6877 97.8789 75.6316 97.4604 75.6372 97.0405C75.6372 96.5912 75.6958 96.1819 75.8138 95.8045C75.918 95.4483 76.0964 95.1182 76.3372 94.8358C76.5754 94.5588 76.8751 94.3413 77.2122 94.2006C77.5599 94.0483 77.9661 93.9733 78.4349 93.9733ZM72.3888 91.9045C72.6161 91.9045 72.838 91.9241 73.0521 91.967C73.2708 92.0084 73.4685 92.0639 73.6513 92.1287C73.8325 92.1936 73.995 92.2694 74.138 92.3537C74.2817 92.4373 74.3802 92.5084 74.4349 92.5647C74.4747 92.6015 74.5096 92.6432 74.5388 92.6889C74.5588 92.7196 74.5728 92.7538 74.5802 92.7897C74.6175 92.9648 74.6244 93.145 74.6005 93.3225C74.5951 93.3716 74.583 93.4197 74.5646 93.4655C74.5534 93.4986 74.5334 93.528 74.5067 93.5506C74.4841 93.5704 74.4548 93.5808 74.4247 93.5795C74.3669 93.5795 74.288 93.5405 74.1833 93.4592C74.0579 93.3646 73.9266 93.278 73.7903 93.1998C73.6042 93.091 73.407 93.0022 73.2021 92.935C72.9336 92.8516 72.6534 92.812 72.3724 92.8178C72.0208 92.8178 71.7021 92.8866 71.413 93.0264C71.1211 93.1708 70.8679 93.383 70.6747 93.6451C70.4573 93.9464 70.2966 94.2847 70.2005 94.6436C70.0825 95.0813 70.0252 95.5332 70.0302 95.9865C70.0302 96.4842 70.0864 96.9264 70.1943 97.31C70.3036 97.6928 70.4568 98.0155 70.6591 98.2725C70.8638 98.5295 71.1107 98.7256 71.4036 98.8584C71.6997 98.9881 72.031 99.0561 72.4013 99.0561C72.7177 99.0561 72.9903 99.017 73.2247 98.9397C73.4333 98.874 73.6349 98.7881 73.8263 98.6819C73.966 98.6024 74.1016 98.5158 74.2325 98.4225C74.3396 98.3444 74.4247 98.3053 74.4825 98.3053C74.5091 98.3044 74.5354 98.3112 74.5583 98.3248C74.5802 98.342 74.5974 98.3662 74.606 98.3928C74.6216 98.4397 74.631 98.4873 74.6364 98.5358C74.6396 98.5983 74.6419 98.6764 74.6419 98.7694C74.6419 98.8358 74.6419 98.8904 74.6396 98.9397C74.6344 98.9823 74.6266 99.0246 74.6161 99.0662C74.6083 99.1006 74.5951 99.1336 74.5771 99.1639C74.5536 99.2021 74.5252 99.237 74.4927 99.2678C74.4131 99.3378 74.3271 99.4001 74.2357 99.4537C74.0823 99.5501 73.9201 99.6317 73.7513 99.6975C73.5366 99.7849 73.3143 99.8524 73.0872 99.899C72.818 99.9556 72.5435 99.9828 72.2685 99.9803C71.7943 99.9873 71.3234 99.901 70.8825 99.7264C70.4765 99.5602 70.1155 99.3005 69.8286 98.9686C69.5364 98.6365 69.3146 98.228 69.1583 97.7365C69.0005 97.2483 68.9255 96.6819 68.9255 96.0451C68.9255 95.3912 69.006 94.8092 69.1755 94.2983C69.3247 93.8225 69.5661 93.3803 69.8841 92.9975C70.1829 92.6466 70.5578 92.3685 70.9802 92.1842C71.4247 91.9926 71.9048 91.8972 72.3888 91.9045ZM86.9669 91.4233C87.0502 91.4217 87.1335 91.4261 87.2161 91.4366C87.2679 91.4435 87.319 91.4555 87.3684 91.4725C87.4002 91.4857 87.4282 91.5066 87.4497 91.5334C87.4688 91.558 87.4792 91.5882 87.4794 91.6194V99.7334C87.4785 99.7627 87.4707 99.7913 87.4567 99.817C87.4382 99.8436 87.412 99.864 87.3817 99.8756C87.3374 99.8914 87.2916 99.9027 87.245 99.9092C87.106 99.9267 86.9653 99.9267 86.8263 99.9092C86.7786 99.9018 86.7315 99.8905 86.6856 99.8756C86.655 99.8631 86.6281 99.8429 86.6075 99.817C86.5911 99.7922 86.5824 99.7631 86.5825 99.7334V99.0069C86.323 99.2964 86.0199 99.5437 85.6841 99.7397C85.3718 99.9129 85.0201 100.002 84.663 99.9998C84.263 99.9998 83.9184 99.9217 83.6349 99.7654C83.3552 99.6145 83.1174 99.3966 82.9427 99.1311C82.758 98.8448 82.6267 98.5274 82.5552 98.1944C82.4727 97.8204 82.4323 97.4383 82.4349 97.0553C82.4349 96.585 82.4841 96.1615 82.5849 95.7819C82.6895 95.4006 82.8388 95.0787 83.0372 94.8092C83.2302 94.5451 83.4841 94.3326 83.7786 94.1905C84.0969 94.0412 84.4451 93.9669 84.7966 93.9733C85.1184 93.9733 85.4106 94.0451 85.677 94.1842C85.9434 94.3248 86.2083 94.5326 86.4684 94.8022V91.6186C86.4685 91.5892 86.4749 91.5601 86.4872 91.5334C86.4997 91.5069 86.5294 91.4881 86.5692 91.4717C86.62 91.4561 86.6724 91.4444 86.7255 91.4366C86.8052 91.4262 86.8865 91.4218 86.9669 91.4233ZM66.8005 89.0756C67.5161 89.3546 68.2814 89.4833 69.0489 89.4538C69.8163 89.4242 70.5695 89.237 71.2614 88.9037L89.7747 79.9952C90.728 79.5362 91.5323 78.8174 92.0952 77.9215C92.6581 77.0257 92.9567 75.9891 92.9567 74.9311V14.5265C92.9568 13.4684 92.6582 12.4317 92.0953 11.5357C91.5324 10.6397 90.728 9.92084 89.7747 9.4617L71.2607 0.553124C70.2146 0.0500722 69.0381 -0.115418 67.8939 0.0795528C66.7497 0.274524 65.6944 0.820317 64.874 1.6414L29.4318 33.9757L13.9944 22.257C13.2981 21.7284 12.4387 21.4602 11.5653 21.499C10.692 21.5378 9.85976 21.8812 9.21312 22.4695L4.26078 26.9742C3.87528 27.3252 3.56723 27.7527 3.35632 28.2295C3.14542 28.7063 3.03629 29.2219 3.03593 29.7432C3.03556 30.2646 3.14396 30.7803 3.35419 31.2574C3.56442 31.7345 3.87186 32.1625 4.25688 32.514L17.6451 44.7288L4.25688 56.9429C3.87161 57.2944 3.56395 57.7225 3.35356 58.1997C3.14318 58.677 3.0347 59.1929 3.03507 59.7144C3.03544 60.236 3.14464 60.7517 3.3557 61.2287C3.56676 61.7056 3.87502 62.1333 4.26078 62.4843L9.21234 66.9882C9.85898 67.5765 10.6912 67.9198 11.5645 67.9587C12.4379 67.9975 13.2973 67.7293 13.9936 67.2007L29.4311 55.4819L64.8732 87.8163C65.4214 88.365 66.0777 88.7939 66.8005 89.0756ZM70.4896 24.3156L43.599 44.7288L70.4888 65.1421L70.4896 24.3156Z" fill="#71C2F2"/>
</svg>
